<svg xmlns="http://www.w3.org/2000/svg" width="24" height="24" viewBox="0 0 24 24" fill="none">
  <path d="M8.24487 4.77188C8.24487 3.55078 10.6533 3.11995 10.6533 2.18611C10.6533 1.5247 10.5813 0.863344 11.0753 0.380672C11.5948 -0.126891 12.4411 -0.126891 12.9606 0.380672C13.4546 0.863344 13.3827 1.5247 13.3827 2.18611C13.3827 3.11995 15.791 3.55078 15.791 4.77192L12.1339 5.95439" fill="#FFE785"/>
  <path d="M12.0178 0C11.8964 0 11.7748 0.126891 11.6824 0.380484C11.5066 0.863531 11.532 1.5247 11.532 2.18592C11.532 3.11995 10.6749 3.55059 10.6749 4.77211H8.24487C8.24487 3.55059 10.6533 3.11995 10.6533 2.18592C10.6533 1.5247 10.5813 0.863531 11.0755 0.380484C11.335 0.126891 11.6765 0 12.0178 0H12.0178Z" fill="#F2A755"/>
  <path d="M17.7139 6.75371V7.06074H6.3219V6.75371C6.3219 5.65894 7.20882 4.77197 8.30363 4.77197H15.7324C16.827 4.77197 17.7139 5.65894 17.7139 6.75371Z" fill="#3598BA"/>
  <path d="M17.714 6.75371V7.06074H8.4751V6.75371C8.4751 5.65894 9.36258 4.77197 10.4574 4.77197H15.7325C16.8271 4.77197 17.714 5.65894 17.714 6.75371Z" fill="#61B4D8"/>
  <path d="M19.0208 9.21928V21.5637C19.0208 22.9091 17.93 23.9999 16.5846 23.9999H7.45186C6.10641 23.9999 5.01562 22.9091 5.01562 21.5637V9.21928C5.01562 7.87345 6.10641 6.78271 7.45186 6.78271H16.5846C17.9301 6.78271 19.0208 7.87345 19.0208 9.21928Z" fill="#93CAD8"/>
  <path d="M19.0208 9.21928V21.5637C19.0208 22.9091 17.93 23.9999 16.5846 23.9999H10.3241C8.9786 23.9999 7.88782 22.9091 7.88782 21.5637V9.21928C7.88782 7.87345 8.9786 6.78271 10.3241 6.78271H16.5846C17.9301 6.78271 19.0208 7.87345 19.0208 9.21928Z" fill="#C0E5F2"/>
  <path d="M12.0697 12.2538C15.197 11.149 17.3675 12.5289 17.3675 13.8448L15.0062 17.6351L12.453 14.5075L12.0697 12.2538Z" fill="#93CAD8"/>
  <path d="M17.3676 13.8446V20.505C17.3676 21.522 16.5433 22.3464 15.5264 22.3464H8.5102C7.49324 22.3464 6.66895 21.522 6.66895 20.505V12.8492C6.66895 11.3328 8.16674 10.2575 9.59643 10.7631C12.4318 11.7658 15.4869 16.2698 17.3676 13.8446Z" fill="white"/>
  <path d="M10.7121 19.7189H8.62928C8.58104 19.719 8.53327 19.7095 8.4887 19.691C8.44414 19.6725 8.40364 19.6455 8.36953 19.6114C8.33542 19.5773 8.30837 19.5368 8.28991 19.4922C8.27145 19.4476 8.26196 19.3999 8.26196 19.3516C8.26196 19.3034 8.27145 19.2556 8.28991 19.2111C8.30837 19.1665 8.33542 19.126 8.36953 19.0919C8.40364 19.0578 8.44414 19.0307 8.4887 19.0123C8.53327 18.9938 8.58104 18.9843 8.62928 18.9843H10.7121C10.7603 18.9843 10.8081 18.9938 10.8526 19.0123C10.8972 19.0307 10.9377 19.0578 10.9718 19.0919C11.0059 19.126 11.033 19.1665 11.0514 19.2111C11.0699 19.2556 11.0794 19.3034 11.0794 19.3516C11.0794 19.3999 11.0699 19.4476 11.0514 19.4922C11.033 19.5368 11.0059 19.5773 10.9718 19.6114C10.9377 19.6455 10.8972 19.6725 10.8526 19.691C10.8081 19.7095 10.7603 19.719 10.7121 19.7189ZM10.7121 15.0948H8.62928C8.4264 15.0948 8.26196 14.9304 8.26196 14.7275C8.26196 14.5245 8.4264 14.36 8.62928 14.36H10.7121C10.8085 14.3615 10.9005 14.4009 10.9681 14.4696C11.0357 14.5384 11.0737 14.6309 11.0737 14.7274C11.0737 14.8238 11.0357 14.9164 10.9681 14.9851C10.9005 15.0539 10.8085 15.0932 10.7121 15.0948ZM10.7121 10.4707H8.62928C8.53285 10.4691 8.44089 10.4297 8.37325 10.361C8.3056 10.2923 8.26769 10.1997 8.26769 10.1032C8.26769 10.0068 8.3056 9.91424 8.37325 9.8455C8.44089 9.77677 8.53285 9.73738 8.62928 9.73584H10.7121C10.8085 9.73738 10.9005 9.77677 10.9681 9.8455C11.0357 9.91424 11.0737 10.0068 11.0737 10.1032C11.0737 10.1997 11.0357 10.2923 10.9681 10.361C10.9005 10.4297 10.8085 10.4691 10.7121 10.4707Z" fill="#93CAD8"/>
</svg>