<svg xmlns="http://www.w3.org/2000/svg" width="24" height="24" viewBox="0 0 24 24" fill="none">
  <path d="M12.9975 16.5035L10.264 21.5043C10.182 21.6542 10.0613 21.7792 9.91438 21.8663C9.76747 21.9535 9.59982 21.9994 9.42902 21.9994C8.80141 21.9994 8.34569 21.4025 8.51112 20.7971L9.8306 15.9683L12.9975 16.5035Z" fill="#F37C7C"/>
  <path d="M9.93871 16.3876C10.1992 18.122 8.86307 19.6133 7.17862 19.6133H6.68596C4.53079 19.6133 2.70773 17.7865 3.06468 15.6729L9.93871 16.3876Z" fill="#E94444"/>
  <path d="M7.17863 18.6317H6.68597C6.38581 18.6314 6.08766 18.5828 5.80299 18.4876C5.71595 18.4571 5.64441 18.3935 5.60379 18.3107C5.56318 18.2279 5.55673 18.1324 5.58585 18.0449C5.61497 17.9574 5.67732 17.8848 5.75946 17.8428C5.8416 17.8008 5.93694 17.7928 6.02494 17.8205C6.23804 17.8918 6.46125 17.9283 6.68597 17.9286H7.17863C7.5399 17.9286 7.87969 17.7509 8.08758 17.4531C8.29908 17.1502 8.34315 16.766 8.20847 16.3991C8.17694 16.3117 8.18128 16.2154 8.22054 16.1312C8.25981 16.047 8.3308 15.9818 8.41802 15.9498C8.50523 15.9177 8.60157 15.9215 8.68598 15.9603C8.7704 15.9991 8.83602 16.0698 8.86852 16.1568C9.08349 16.7425 9.00901 17.3617 8.6641 17.8557C8.32482 18.3416 7.76949 18.6317 7.17863 18.6317Z" fill="#D83131"/>
  <path d="M15.8536 16.8206H4.44975C3.2197 16.8206 2.10619 16.3215 1.30073 15.5147C0.708422 14.9214 0.70725 13.9609 1.30008 13.3681L1.69397 12.9742L1.61962 13.0486C1.02633 13.6418 0.00360937 13.2295 4.6875e-05 12.3905L0 12.3708C0 9.52683 1.14483 6.95025 2.99873 5.07675C3.37003 4.70157 3.97434 4.6965 4.34761 5.06972L4.47689 5.199C4.05366 4.77577 4.12322 4.071 4.62108 3.73875L4.62103 3.73871C6.26653 2.64071 8.24367 2.00049 10.3704 2.00049H11.0514C11.5753 2.00049 12 2.42522 12 2.9491C12 2.42518 12.4248 2.00049 12.9487 2.00049H15.0674C16.6458 2.00049 18.1568 2.40005 19.4849 3.11925C20.0401 3.41991 20.144 4.17413 19.6976 4.62066L19.9335 4.38474C20.2891 4.02914 20.8602 4.01311 21.236 4.34729C22.3355 5.32505 23.2012 6.5738 23.7505 8.00593C24.6938 10.5072 22.8454 13.1798 20.1722 13.1798H19.2008C19.1703 13.1798 19.1468 13.2058 19.1494 13.2362C19.1573 13.3297 19.1614 13.4243 19.1614 13.5199C19.1614 15.3451 17.6798 16.8244 15.8536 16.8206Z" fill="#F9B1B1"/>
  <path d="M17.766 3.65497L18.0019 3.41905C18.3575 3.06345 18.9286 3.04742 19.3044 3.38159C19.5379 3.58939 19.7607 3.80904 19.9718 4.03967C20.006 3.67981 19.8354 3.30917 19.4849 3.11933C18.9697 2.84027 18.4292 2.61067 17.8706 2.43359C18.1268 2.79444 18.1066 3.31428 17.766 3.65497ZM23.7505 8.00605C23.2012 6.57383 22.3354 5.32512 21.2359 4.34731C20.9265 4.07216 20.4847 4.03452 20.1398 4.22834C20.847 5.04491 21.4175 5.99356 21.8189 7.04023C22.7622 9.54148 20.9138 12.2141 18.2406 12.2141H17.5622C17.4741 12.2141 17.3895 12.2491 17.3272 12.3114C17.2649 12.3738 17.2299 12.4583 17.2299 12.5465V12.5542C17.2299 14.3795 15.7483 15.8587 13.9221 15.8549H2.51818C2.19422 15.8551 1.87119 15.8201 1.55481 15.7504C2.33298 16.4176 3.34431 16.8207 4.44976 16.8207H15.8537C17.6798 16.8245 19.1614 15.3453 19.1614 13.52C19.1614 13.4245 19.1574 13.3298 19.1494 13.2363C19.1487 13.2292 19.1496 13.2219 19.1519 13.2151C19.1541 13.2083 19.1578 13.2021 19.1627 13.1968C19.1675 13.1914 19.1734 13.1872 19.18 13.1843C19.1865 13.1814 19.1936 13.1799 19.2008 13.1799H20.1722C22.8454 13.1798 24.6938 10.5073 23.7505 8.00605Z" fill="#F79595"/>
  <path d="M3.57844 4.79785L5.63405 6.85346C5.69998 6.91938 5.78939 6.95641 5.88262 6.95641C5.97586 6.95641 6.06527 6.91938 6.1312 6.85346C6.19712 6.78753 6.23416 6.69811 6.23416 6.60488C6.23416 6.51164 6.19712 6.42223 6.1312 6.3563L4.20412 4.42917C4.17562 4.70152 4.26375 4.986 4.47684 5.1991L4.34756 5.06982C4.13695 4.85921 3.8528 4.76906 3.57844 4.79785ZM13.6481 15.042C13.7413 15.042 13.8307 15.005 13.8967 14.9391C13.9626 14.8731 13.9996 14.7837 13.9996 14.6905C13.9996 14.5972 13.9626 14.5078 13.8967 14.4419C13.8307 14.376 13.7413 14.3389 13.6481 14.3389H9.14358C7.79165 14.3389 6.52064 14.8654 5.56472 15.8213L4.56539 16.8207H5.55975L6.06187 16.3185C6.885 15.4954 7.97944 15.042 9.14353 15.042H13.6481ZM9.9233 4.33228L9.7943 3.66816C9.77569 3.57744 9.72205 3.49772 9.64501 3.44632C9.56798 3.39493 9.47377 3.376 9.38286 3.39366C9.29195 3.41132 9.21168 3.46413 9.15949 3.54063C9.1073 3.61713 9.08739 3.71113 9.10411 3.80222L9.23311 4.46635C9.30394 4.83085 9.09731 5.19492 8.75255 5.31324C8.4697 5.41038 8.19413 5.52753 7.92792 5.66382L7.21401 4.20811C7.17292 4.12448 7.10029 4.06058 7.0121 4.03046C6.92392 4.00035 6.82738 4.00647 6.74371 4.0475C6.66004 4.08853 6.59608 4.1611 6.56589 4.24926C6.5357 4.33743 6.54174 4.43397 6.5827 4.51767L7.98595 7.37916C8.00627 7.42062 8.03456 7.45766 8.0692 7.48818C8.10385 7.5187 8.14416 7.5421 8.18785 7.55704C8.23154 7.57197 8.27774 7.57815 8.32382 7.57523C8.36989 7.5723 8.41494 7.56033 8.45639 7.53999C8.54011 7.49894 8.60409 7.42631 8.63426 7.33809C8.66443 7.24986 8.65831 7.15327 8.61726 7.06955L8.23753 6.29513C8.47732 6.17173 8.72572 6.06581 8.98078 5.97821C9.6554 5.74678 10.0606 5.03911 9.9233 4.33228ZM3.31514 11.4001C2.73126 10.8163 2.63044 9.88758 3.07528 9.192L3.35784 8.75016C3.40724 8.67162 3.4236 8.57674 3.40334 8.4862C3.38308 8.39566 3.32785 8.3168 3.24969 8.2668C3.17152 8.21681 3.07677 8.19974 2.98608 8.21932C2.89539 8.2389 2.81611 8.29353 2.76553 8.37132L2.48297 8.81316C1.86159 9.78474 2.0025 11.0818 2.81798 11.8973L3.47062 12.55C3.53925 12.6186 3.62925 12.653 3.7192 12.653C3.80915 12.653 3.89915 12.6187 3.96778 12.55C4.0337 12.4841 4.07074 12.3946 4.07074 12.3014C4.07074 12.2082 4.0337 12.1188 3.96778 12.0528L3.31514 11.4001ZM19.8501 13.1798C19.7835 12.4668 19.5117 11.7869 19.0538 11.2218C18.5031 10.5422 17.742 10.0915 16.9012 9.93197L17.3743 8.51274C17.4038 8.42428 17.3969 8.32773 17.3552 8.24433C17.3135 8.16093 17.2404 8.09752 17.1519 8.06803C17.0635 8.03855 16.9669 8.04542 16.8835 8.08712C16.8001 8.12882 16.7367 8.20195 16.7072 8.29041L16.1815 9.86761H14.1659L14.7137 7.82602C14.7257 7.78143 14.7288 7.73491 14.7228 7.68914C14.7167 7.64336 14.7018 7.59921 14.6787 7.55922C14.6556 7.51923 14.6249 7.48417 14.5883 7.45605C14.5517 7.42793 14.5099 7.4073 14.4653 7.39533C14.4207 7.38336 14.3742 7.3803 14.3284 7.38631C14.2826 7.39232 14.2385 7.40728 14.1985 7.43035C14.1585 7.45342 14.1234 7.48414 14.0953 7.52076C14.0672 7.55738 14.0466 7.59918 14.0346 7.64377L13.4378 9.86757H11.3106L10.7138 7.64377C10.6887 7.55483 10.6295 7.47938 10.5491 7.43374C10.4688 7.3881 10.3736 7.37594 10.2844 7.3999C10.1951 7.42386 10.1189 7.482 10.0721 7.56175C10.0254 7.64149 10.012 7.73643 10.0347 7.82602L10.5825 9.86761H8.8148C8.72156 9.86761 8.63213 9.90465 8.5662 9.97058C8.50027 10.0365 8.46323 10.1259 8.46323 10.2192C8.46323 10.3124 8.50027 10.4018 8.5662 10.4678C8.63213 10.5337 8.72156 10.5707 8.8148 10.5707H16.2149C17.1085 10.5707 17.9441 10.9694 18.5074 11.6645C18.8823 12.1271 19.1026 12.6861 19.1521 13.2725C19.1512 13.2604 19.1502 13.2483 19.1492 13.2362C19.1485 13.229 19.1494 13.2218 19.1517 13.215C19.1539 13.2082 19.1576 13.2019 19.1625 13.1966C19.1673 13.1913 19.1732 13.1871 19.1798 13.1842C19.1863 13.1813 19.1934 13.1798 19.2006 13.1798L19.8501 13.1798Z" fill="#F79595"/>
  <path d="M16.8449 13.0168C16.6827 12.8544 16.5017 12.712 16.3057 12.5927L16.915 11.9834C16.9809 11.9174 17.018 11.828 17.018 11.7348C17.018 11.6416 16.9809 11.5522 16.915 11.4862C16.8491 11.4203 16.7597 11.3833 16.6664 11.3833C16.5732 11.3833 16.4838 11.4203 16.4178 11.4862L15.6136 12.2905C15.3583 12.2181 15.0942 12.1814 14.8288 12.1817H8.65079C7.65671 12.1817 6.72212 11.7946 6.01923 11.0917L4.89817 9.97061C4.83224 9.90469 4.74282 9.86766 4.64959 9.86766C4.55636 9.86766 4.46694 9.90469 4.40101 9.97061C4.33509 10.0365 4.29805 10.126 4.29805 10.2192C4.29805 10.3124 4.33509 10.4018 4.40101 10.4678L5.52207 11.5888C6.35781 12.4246 7.46893 12.8848 8.65084 12.8848H14.8289C15.0808 12.8848 15.326 12.9279 15.5563 13.0105C15.5747 13.0193 15.5936 13.0264 15.613 13.0318C15.8852 13.1383 16.1349 13.301 16.3478 13.5139L16.4709 13.6369C16.5395 13.7056 16.6295 13.7399 16.7194 13.7399C16.8094 13.7399 16.8994 13.7056 16.968 13.6369C17.0339 13.571 17.071 13.4816 17.071 13.3884C17.071 13.2951 17.0339 13.2057 16.968 13.1398L16.8449 13.0168ZM19.1333 13.952C19.1232 14.0247 19.1105 14.0969 19.0953 14.1687C19.0925 14.1823 19.0904 14.1961 19.0891 14.21C19.1071 14.1252 19.1219 14.0391 19.1333 13.952ZM5.75157 8.15304C5.68565 8.21896 5.64862 8.30838 5.64862 8.40161C5.64862 8.49485 5.68565 8.58426 5.75157 8.65019L7.08484 9.98346C7.15346 10.0521 7.24346 10.0864 7.33342 10.0864C7.42337 10.0864 7.51337 10.0521 7.582 9.98346C7.64792 9.91753 7.68495 9.82811 7.68495 9.73488C7.68495 9.64165 7.64792 9.55223 7.582 9.4863L6.24873 8.15304C6.1828 8.08711 6.09339 8.05008 6.00015 8.05008C5.90692 8.05008 5.8175 8.08711 5.75157 8.15304ZM20.4625 11.5994C20.1368 10.8191 19.6373 10.1705 19.0243 9.66658C18.8796 9.54771 18.7948 9.37788 18.7856 9.18836C18.781 9.093 18.7964 8.99774 18.8308 8.90867C18.8651 8.8196 18.9177 8.73868 18.9851 8.6711L19.6141 8.04218C19.68 7.97625 19.717 7.88683 19.717 7.7936C19.717 7.70036 19.68 7.61095 19.6141 7.54502C19.5481 7.4791 19.4587 7.44206 19.3655 7.44206C19.2722 7.44206 19.1828 7.4791 19.1169 7.54502L18.488 8.17394C18.3512 8.31093 18.2446 8.47498 18.1749 8.65557C18.1052 8.83617 18.074 9.02933 18.0833 9.22268C18.1021 9.60719 18.2823 9.96696 18.5778 10.2098C19.1215 10.6566 19.5421 11.2197 19.8136 11.8703C19.8403 11.9343 19.8854 11.989 19.9432 12.0275C20.0009 12.066 20.0688 12.0865 20.1382 12.0865C20.1961 12.0865 20.2531 12.0722 20.3041 12.0448C20.3551 12.0175 20.3986 11.978 20.4307 11.9298C20.4628 11.8816 20.4825 11.8262 20.488 11.7686C20.4936 11.7109 20.4848 11.6528 20.4625 11.5994ZM2.41839 14.8194C2.35246 14.8853 2.31543 14.9748 2.31543 15.068C2.31543 15.1612 2.35246 15.2506 2.41839 15.3166C2.48432 15.3825 2.57373 15.4195 2.66696 15.4195C2.7602 15.4195 2.84961 15.3825 2.91554 15.3166L3.3136 14.9185C3.85028 14.3818 4.56385 14.0863 5.32281 14.0863H6.00015C6.09339 14.0863 6.18281 14.0492 6.24874 13.9833C6.31468 13.9174 6.35171 13.828 6.35171 13.7347C6.35171 13.6415 6.31468 13.5521 6.24874 13.4861C6.18281 13.4202 6.09339 13.3832 6.00015 13.3832H5.32281C4.37603 13.3832 3.48587 13.7519 2.8164 14.4213L2.41839 14.8194ZM18.268 6.05018C18.3367 6.1188 18.4267 6.15316 18.5166 6.15316C18.6066 6.15316 18.6966 6.11885 18.7652 6.05018L20.7032 4.11213C20.4279 4.08344 20.1432 4.17504 19.9334 4.38475L19.6975 4.62068C19.9115 4.40655 19.999 4.12174 19.9709 3.8501L18.268 5.55302C18.2021 5.61895 18.1651 5.70836 18.1651 5.8016C18.1651 5.89483 18.2021 5.98425 18.268 6.05018ZM23.9999 9.37628L21.2639 9.92346C21.2186 9.93251 21.1756 9.9504 21.1372 9.97609C21.0989 10.0018 21.066 10.0348 21.0403 10.0732C21.0147 10.1116 20.9969 10.1547 20.988 10.2C20.979 10.2453 20.9791 10.2919 20.9881 10.3372C20.9972 10.3824 21.0151 10.4255 21.0408 10.4638C21.0664 10.5022 21.0994 10.5351 21.1379 10.5607C21.1763 10.5863 21.2194 10.6041 21.2646 10.6131C21.3099 10.622 21.3566 10.622 21.4018 10.6129L23.9246 10.1084C23.9735 9.86739 23.9987 9.62219 23.9999 9.37628Z" fill="#F79595"/>
  <path d="M21.5815 7.00498C21.6475 6.93905 21.6845 6.84963 21.6845 6.7564C21.6845 6.66316 21.6475 6.57375 21.5815 6.50782C21.5489 6.47517 21.5101 6.44927 21.4675 6.43159C21.4248 6.41392 21.3791 6.40482 21.333 6.40482C21.2868 6.40482 21.2411 6.41392 21.1984 6.43159C21.1558 6.44927 21.117 6.47517 21.0844 6.50782L20.7109 6.88132C20.4044 7.18788 20.3185 7.65598 20.4974 8.04616C20.5595 8.18187 20.6174 8.3195 20.6709 8.45885C20.6969 8.52775 20.72 8.5977 20.7402 8.66852L20.2125 8.77409C20.1672 8.78314 20.1241 8.80102 20.0858 8.82671C20.0474 8.85241 20.0145 8.8854 19.9889 8.92382C19.9633 8.96223 19.9455 9.00531 19.9365 9.0506C19.9276 9.0959 19.9276 9.14251 19.9367 9.18778C19.9457 9.23305 19.9636 9.2761 19.9893 9.31446C20.015 9.35282 20.048 9.38575 20.0864 9.41136C20.1248 9.43696 20.1679 9.45476 20.2132 9.46372C20.2585 9.47267 20.3051 9.47263 20.3504 9.46357L21.2289 9.28788H21.229L22.7352 8.98662C22.8267 8.96834 22.9071 8.91448 22.9588 8.8369C23.0105 8.75933 23.0293 8.66438 23.011 8.57295C22.9928 8.48151 22.9389 8.40109 22.8613 8.34936C22.7837 8.29764 22.6888 8.27885 22.5974 8.29713L21.4315 8.53029C21.4024 8.42149 21.3679 8.31422 21.3281 8.20887C21.2691 8.05499 21.2052 7.90302 21.1366 7.75319C21.0796 7.62884 21.1084 7.47827 21.2081 7.37848L21.5815 7.00498ZM12.3516 2.21191C12.1371 2.38582 12 2.65146 12 2.94912C12 2.65146 11.8629 2.38587 11.6484 2.21191V4.40173C11.6484 4.49497 11.6855 4.58439 11.7514 4.65032C11.8173 4.71625 11.9068 4.75329 12 4.75329C12.0932 4.75329 12.1827 4.71625 12.2486 4.65032C12.3145 4.58439 12.3516 4.49497 12.3516 4.40173V2.21191ZM12 5.38348C11.9068 5.38348 11.8173 5.42052 11.7514 5.48645C11.6855 5.55238 11.6484 5.6418 11.6484 5.73504V7.73496C11.6484 7.8282 11.6855 7.91762 11.7514 7.98355C11.8173 8.04948 11.9068 8.08652 12 8.08652C12.0932 8.08652 12.1827 8.04948 12.2486 7.98355C12.3145 7.91762 12.3516 7.8282 12.3516 7.73496V5.73504C12.3516 5.6418 12.3145 5.55238 12.2486 5.48645C12.1827 5.42052 12.0932 5.38348 12 5.38348ZM14.9904 3.49048C15.0071 3.39873 14.9866 3.30413 14.9336 3.22747C14.8805 3.15082 14.7991 3.09839 14.7074 3.08173C14.6156 3.06506 14.521 3.08552 14.4444 3.13861C14.3677 3.1917 14.3153 3.27306 14.2986 3.3648L14.1892 3.96715C14.0555 4.70262 14.4937 5.41287 15.2084 5.61926C15.4664 5.69388 15.7182 5.78879 15.9613 5.90309L15.7171 6.42209C15.6972 6.4639 15.6858 6.50923 15.6834 6.55548C15.6811 6.60174 15.6879 6.648 15.7035 6.69161C15.7191 6.73522 15.7431 6.77533 15.7742 6.80962C15.8054 6.84391 15.843 6.87171 15.8849 6.89142C15.9268 6.91113 15.9722 6.92237 16.0184 6.92449C16.0647 6.92661 16.1109 6.91957 16.1545 6.90377C16.198 6.88797 16.238 6.86372 16.2721 6.83242C16.3063 6.80112 16.3339 6.76339 16.3534 6.72138L17.6071 4.05588C17.6271 4.01407 17.6385 3.96874 17.6409 3.92248C17.6432 3.87623 17.6364 3.82997 17.6208 3.78636C17.6052 3.74274 17.5812 3.70264 17.55 3.66835C17.5189 3.63406 17.4813 3.60626 17.4394 3.58655C17.3975 3.56683 17.3521 3.55559 17.3058 3.55348C17.2596 3.55136 17.2134 3.5584 17.1698 3.5742C17.1263 3.59 17.0863 3.61425 17.0522 3.64555C17.018 3.67685 16.9904 3.71458 16.9709 3.75659L16.2605 5.26685C15.9838 5.1367 15.6972 5.02866 15.4035 4.94374C15.0367 4.83785 14.8121 4.47204 14.881 4.09287L14.9904 3.49048Z" fill="#F79595"/>
  <path d="M21.6792 6.69593C21.6696 6.64016 21.6465 6.58758 21.612 6.54269C21.6349 6.5935 21.6572 6.6446 21.6792 6.69593ZM20.1397 4.22824C20.209 4.30828 20.2769 4.38951 20.3435 4.47189L20.7033 4.11208C20.5079 4.09164 20.311 4.13222 20.1397 4.22824ZM19.9718 4.03961C19.9778 3.97657 19.9775 3.91309 19.9709 3.8501L19.8801 3.94094C19.9108 3.97361 19.9415 4.00647 19.9718 4.03961ZM23.0109 8.57294C22.9926 8.48152 22.9388 8.4011 22.8612 8.34938C22.7836 8.29765 22.6887 8.27886 22.5973 8.29713L22.0683 8.40293C22.0677 8.64867 22.043 8.89376 21.9947 9.13469L22.7351 8.98661C22.7804 8.97756 22.8234 8.95968 22.8618 8.93399C22.9002 8.90831 22.9331 8.87531 22.9587 8.8369C22.9843 8.79849 23.0021 8.75541 23.0111 8.71012C23.02 8.66483 23.02 8.61821 23.0109 8.57294ZM23.9999 9.37628L21.7893 9.81841C21.6742 10.102 21.5259 10.3709 21.3475 10.6195C21.3658 10.6187 21.3839 10.6165 21.4018 10.6129L23.9247 10.1084C23.9736 9.86739 23.9988 9.62219 23.9999 9.37628ZM19.1333 13.9521C19.1232 14.0247 19.1105 14.097 19.0954 14.1687C19.0925 14.1823 19.0904 14.1961 19.0891 14.21C19.1071 14.1252 19.1219 14.0392 19.1333 13.9521ZM20.4625 11.5994C20.4524 11.5752 20.4421 11.5511 20.4317 11.5271C20.2382 11.6631 20.0324 11.7805 19.817 11.8779C19.8446 11.94 19.8897 11.9927 19.9467 12.0297C20.0037 12.0668 20.0702 12.0865 20.1382 12.0865C20.1833 12.0865 20.2292 12.0777 20.2735 12.0592C20.3161 12.0414 20.3548 12.0154 20.3873 11.9827C20.4199 11.95 20.4457 11.9112 20.4632 11.8685C20.4808 11.8258 20.4898 11.78 20.4896 11.7338C20.4895 11.6877 20.4803 11.642 20.4625 11.5994ZM6.06191 16.3185C6.23084 16.1494 6.41322 15.9944 6.60726 15.8548H5.5312L4.56543 16.8206H5.55979L6.06191 16.3185ZM19.8501 13.1798C19.8121 12.769 19.7048 12.3676 19.5328 11.9927C19.3068 12.0733 19.0736 12.1322 18.8365 12.1687C19.0128 12.5116 19.1196 12.8861 19.1522 13.2725C19.1513 13.2604 19.1503 13.2483 19.1493 13.2363C19.1486 13.2291 19.1495 13.2219 19.1517 13.2151C19.154 13.2083 19.1577 13.202 19.1625 13.1967C19.1674 13.1914 19.1733 13.1871 19.1798 13.1842C19.1864 13.1813 19.1935 13.1798 19.2007 13.1798H19.8501V13.1798Z" fill="#F37C7C"/>
</svg>