<svg xmlns="http://www.w3.org/2000/svg" width="24" height="24" viewBox="0 0 24 24" fill="none">
  <path d="M16.8 1.24121C14.9533 1.24121 13.2745 1.94237 12 3.08537C10.7255 1.94237 9.04669 1.24121 7.2 1.24121C3.22355 1.24121 0 4.46476 0 8.44121C0 13.3964 5.37933 19.3964 12 22.7585C18.6207 19.3964 24 13.3964 24 8.44126C24 4.46476 20.7765 1.24121 16.8 1.24121Z" fill="#FF5A4E"/>
  <path d="M4.96552 9.68734C4.96552 6.00329 6.97959 2.87874 9.78389 1.72421C8.95996 1.4045 8.08378 1.24072 7.2 1.24121C3.22355 1.24121 0 4.46476 0 8.44121C0 13.3964 5.37933 19.3964 12 22.7585C12.0054 22.7557 12.0108 22.7528 12.0163 22.7499C7.86117 18.8724 4.96552 13.9509 4.96552 9.68734Z" fill="#EB443F"/>
  <path d="M16.8 1.24121C16.6426 1.24121 16.4885 1.25321 16.3337 1.26324C19.4554 1.49012 21.931 4.61213 21.931 8.44121C21.931 13.3964 17.4792 19.3964 12 22.7585C18.6207 19.3964 24 13.3964 24 8.44126C24 4.46476 20.7765 1.24121 16.8 1.24121Z" fill="#FF7E68"/>
  <path d="M19.4483 9.10339C20.1339 9.10339 20.6897 8.5476 20.6897 7.862C20.6897 7.1764 20.1339 6.62061 19.4483 6.62061C18.7627 6.62061 18.2069 7.1764 18.2069 7.862C18.2069 8.5476 18.7627 9.10339 19.4483 9.10339Z" fill="#FF9A79"/>
  <path d="M18.8276 5.7931C19.1704 5.7931 19.4483 5.51522 19.4483 5.17243C19.4483 4.82964 19.1704 4.55176 18.8276 4.55176C18.4848 4.55176 18.2069 4.82964 18.2069 5.17243C18.2069 5.51522 18.4848 5.7931 18.8276 5.7931Z" fill="#FFBEAC"/>
</svg>