<svg width="24" height="24" viewBox="0 0 24 24" fill="none" xmlns="http://www.w3.org/2000/svg">
<g id="simple-line-icons:lock">
<path id="Vector" d="M18.75 9H18V6.13763C18 2.69588 15.5096 0 11.9722 0C8.42063 0 6 2.75325 6 6.13763V9H5.25C3.5955 9 2.25 10.3455 2.25 12V21C2.25 22.6545 3.5955 24 5.25 24H18.75C20.4045 24 21.75 22.6545 21.75 21V12C21.75 10.3455 20.4045 9 18.75 9ZM7.5 6.13763C7.5 3.58088 9.2475 1.5 11.9722 1.5C14.6689 1.5 16.5 3.537 16.5 6.13763V9H7.5V6.13763ZM20.25 21C20.25 21.8269 19.5769 22.5 18.75 22.5H5.25002C4.42315 22.5 3.75002 21.8269 3.75002 21V12C3.75002 11.1731 4.42315 10.5 5.25002 10.5H18.75C19.5769 10.5 20.25 11.1731 20.25 12V21ZM12 13.5C11.1716 13.5 10.5 14.1716 10.5 15C10.5 15.5539 10.8038 16.032 11.25 16.2919V18.75C11.25 19.164 11.586 19.5 12 19.5C12.414 19.5 12.75 19.164 12.75 18.75V16.2919C13.1963 16.032 13.5 15.5535 13.5 15C13.5 14.1716 12.8284 13.5 12 13.5Z" fill="#B5B5B5"/>
</g>
</svg>
