<svg xmlns="http://www.w3.org/2000/svg" width="24" height="24" viewBox="0 0 24 24" fill="none">
  <g clip-path="url(#clip0_130_1562)">
    <path d="M13.8225 6.15581L13.2704 5.89631V1.22348C13.2704 0.548813 12.7215 0 12.0469 0C11.3723 0 10.8235 0.548859 10.8235 1.22348V5.89631L10.1992 6.1897C10.1271 6.2236 10.0686 6.28099 10.0334 6.35248C9.9981 6.42396 9.98816 6.5053 10.0052 6.58317C10.0244 6.67134 10.0342 6.76106 10.0342 6.84994V8.31516C10.0341 8.37199 10.0479 8.42797 10.0742 8.47833C10.1006 8.52868 10.1387 8.5719 10.1854 8.6043C10.2321 8.63669 10.286 8.65729 10.3424 8.66433C10.3987 8.67137 10.456 8.66465 10.5092 8.64473C11.4722 8.28492 12.5376 8.27559 13.5091 8.61862C13.5622 8.63737 13.619 8.64311 13.6747 8.63536C13.7305 8.62762 13.7835 8.60661 13.8295 8.5741C13.8754 8.54159 13.9129 8.49853 13.9388 8.44854C13.9646 8.39855 13.9781 8.34308 13.9781 8.2868V6.85772C13.9781 6.75713 13.9904 6.65644 14.0145 6.55856C14.034 6.47958 14.0255 6.39631 13.9905 6.32289C13.9554 6.24947 13.8961 6.19043 13.8225 6.15581Z" fill="#FFC89F"/>
    <path d="M10.0127 5.33577C9.55391 4.96649 8.96146 4.82671 8.38729 4.95228C1.80468 6.39214 0.352489 17.3845 0.033739 22.0437C-0.0180578 22.801 0.374005 23.4778 1.05697 23.8101C1.31854 23.9374 1.59346 23.9998 1.86486 23.9998C2.30122 23.9998 2.7283 23.8384 3.07541 23.5257C5.03015 21.7642 7.14271 21.0209 8.57066 20.7077C9.8264 20.4321 10.7378 19.2959 10.7378 18.006V6.84974C10.7378 6.2585 10.4735 5.70664 10.0127 5.33577Z" fill="#F77474"/>
    <path d="M10.0127 5.33577C9.5539 4.96649 8.96144 4.82671 8.38727 4.95228C8.2196 4.98899 8.0554 5.03216 7.89429 5.08096C8.04231 5.14826 8.18133 5.23383 8.3081 5.33568C8.76888 5.70655 9.03321 6.25836 9.03321 6.84964V20.5614C10.044 20.1395 10.7378 19.1313 10.7378 18.0059V6.84974C10.7378 6.2585 10.4735 5.70664 10.0127 5.33577Z" fill="#E55555"/>
    <path d="M9.97587 14.9332C9.95894 14.9627 8.55269 18.0478 5.27857 18.7686C5.27515 18.7693 5.27173 18.7702 5.26826 18.771L4.13955 19.0554C4.08269 19.0691 3.37357 19.2445 2.53352 19.6665C1.38091 20.2453 0.530273 21.019 0.073335 21.9039C0.0507692 21.9472 0.0372899 21.9946 0.0337256 22.0433V22.0433C0.0321319 22.0661 0.0322725 22.0887 0.0315225 22.1114C0.0306788 22.1357 0.029085 22.1603 0.0291788 22.1844C0.0292725 22.2073 0.0310069 22.2297 0.0318975 22.2524C0.032835 22.2759 0.0329756 22.2998 0.0347569 22.3231C0.0365381 22.3459 0.0399131 22.3681 0.0424913 22.3906C0.0451163 22.4135 0.0468975 22.4366 0.0503194 22.4592C0.0537413 22.4818 0.0588038 22.5038 0.0630225 22.5261C0.0672413 22.5481 0.0706163 22.5705 0.075585 22.5922C0.0806944 22.6146 0.0874444 22.6365 0.0933975 22.6585C0.0990694 22.6796 0.103944 22.701 0.110366 22.7218C0.116413 22.7414 0.123913 22.7604 0.130616 22.7796C0.138491 22.8023 0.145663 22.8253 0.154429 22.8476C0.161226 22.8649 0.169382 22.8816 0.176741 22.8986C0.186866 22.9222 0.196429 22.9461 0.207632 22.9691C0.217148 22.9889 0.228116 23.0079 0.238429 23.0272C0.248835 23.0468 0.258491 23.0669 0.269648 23.0861C0.281788 23.107 0.295382 23.1271 0.308413 23.1475C0.319101 23.1643 0.328991 23.1816 0.340288 23.1981C0.353132 23.2168 0.367382 23.2347 0.381023 23.253C0.393819 23.2702 0.405866 23.2879 0.419319 23.3047C0.433382 23.3223 0.448897 23.3389 0.463663 23.356C0.47796 23.3725 0.491554 23.3896 0.506507 23.4056C0.522538 23.4228 0.539929 23.439 0.556663 23.4556C0.571663 23.4704 0.586054 23.4859 0.601616 23.5003C0.622241 23.5194 0.644319 23.5373 0.665976 23.5555C0.678913 23.5664 0.691101 23.5779 0.70446 23.5885C0.739054 23.616 0.774624 23.6422 0.811101 23.6671C0.812366 23.6679 0.813491 23.6689 0.814757 23.6698C0.851976 23.6951 0.890366 23.7192 0.929882 23.7422C0.930726 23.7427 0.931476 23.7433 0.932319 23.7437C0.972726 23.7671 1.01426 23.7893 1.05696 23.81C1.31852 23.9372 1.59344 23.9997 1.86485 23.9997C2.30121 23.9997 2.72829 23.8383 3.0754 23.5255C5.03013 21.7641 7.14269 21.0208 8.57065 20.7076C9.82638 20.432 10.7378 19.2958 10.7378 18.0059V13.6338C10.5562 13.9289 10.3129 14.3468 9.97587 14.9332Z" fill="#EF3A47"/>
    <path d="M13.8224 6.15581L13.2703 5.89631V1.22348C13.2703 0.548813 12.7214 0 12.0469 0C12.0278 0 12.0088 0.0005625 11.9899 0.00145312V8.3685C12.507 8.36191 13.0212 8.44655 13.5089 8.61853C13.562 8.63728 13.6188 8.64302 13.6746 8.63527C13.7303 8.62752 13.7834 8.60651 13.8293 8.57401C13.8753 8.5415 13.9128 8.49844 13.9386 8.44845C13.9645 8.39846 13.978 8.34299 13.978 8.2867V6.85763C13.978 6.75703 13.9902 6.65634 14.0144 6.55847C14.0339 6.47951 14.0254 6.39625 13.9904 6.32284C13.9554 6.24943 13.896 6.19041 13.8224 6.15581Z" fill="#F7B081"/>
    <path d="M23.9661 22.0437C23.6473 17.3844 22.1951 6.39216 15.6125 4.9523C15.0386 4.82672 14.446 4.96641 13.9871 5.33574C13.5264 5.70661 13.2621 6.25847 13.2621 6.84975V18.006C13.2621 19.296 14.1735 20.4322 15.4292 20.7076C16.8571 21.021 18.9697 21.7642 20.9245 23.5256C21.2716 23.8384 21.6986 23.9998 22.135 23.9998C22.4064 23.9998 22.6814 23.9373 22.9429 23.8101C23.6258 23.4778 24.018 22.8009 23.9661 22.0437Z" fill="#F77474"/>
    <path d="M23.9661 22.0441C23.6473 17.3849 22.1952 6.3926 15.6125 4.95274C15.2165 4.86548 14.803 4.90571 14.4312 5.06768C20.6322 6.89707 22.0253 17.4925 22.3368 22.0441C22.3882 22.7966 22.0011 23.4692 21.3263 23.8038C21.5796 23.9336 21.8553 24.0002 22.1349 24.0002C22.4063 24.0002 22.6813 23.9378 22.9428 23.8106C23.6258 23.4783 24.018 22.8014 23.9661 22.0441Z" fill="#E55555"/>
    <path d="M14.024 14.9332C14.041 14.9627 15.4472 18.0478 18.7213 18.7686C18.7247 18.7693 18.7282 18.7702 18.7316 18.771L19.8603 19.0554C19.9172 19.0691 20.6263 19.2445 21.4663 19.6665C22.6189 20.2453 23.4696 21.019 23.9265 21.9039C23.9489 21.9472 23.9628 21.9946 23.9661 22.0433V22.0433C23.9677 22.0661 23.9676 22.0887 23.9683 22.1114C23.9692 22.1357 23.9708 22.1603 23.9707 22.1844C23.9706 22.2073 23.9689 22.2297 23.968 22.2524C23.967 22.2759 23.9669 22.2998 23.9651 22.3231C23.9633 22.3459 23.9599 22.3681 23.9574 22.3906C23.9547 22.4135 23.953 22.4366 23.9495 22.4592C23.9461 22.4818 23.9411 22.5038 23.9368 22.5261C23.9326 22.5481 23.9292 22.5705 23.9243 22.5922C23.9192 22.6146 23.9124 22.6365 23.9065 22.6585C23.9008 22.6796 23.8959 22.701 23.8895 22.7218C23.8834 22.7414 23.8759 22.7604 23.8692 22.7796C23.8614 22.8023 23.8542 22.8253 23.8454 22.8476C23.8386 22.8649 23.8305 22.8816 23.8231 22.8986C23.813 22.9222 23.8034 22.9461 23.7922 22.9691C23.7827 22.9889 23.7717 23.0079 23.7614 23.0272C23.751 23.0468 23.7414 23.0669 23.7302 23.0861C23.7181 23.107 23.7045 23.1271 23.6914 23.1475C23.6808 23.1643 23.6709 23.1816 23.6596 23.1981C23.6467 23.2168 23.6325 23.2347 23.6188 23.253C23.606 23.2702 23.594 23.2879 23.5805 23.3047C23.5665 23.3223 23.551 23.3389 23.5362 23.356C23.5219 23.3725 23.5083 23.3896 23.4934 23.4056C23.4773 23.4228 23.4599 23.439 23.4432 23.4556C23.4282 23.4704 23.4138 23.4859 23.3982 23.5003C23.3776 23.5194 23.3555 23.5373 23.3339 23.5555C23.3209 23.5664 23.3088 23.5779 23.2954 23.5885C23.2608 23.616 23.2252 23.6422 23.1888 23.6671C23.1875 23.6679 23.1864 23.6689 23.1851 23.6698C23.1476 23.6953 23.1092 23.7194 23.07 23.7422C23.0691 23.7427 23.0684 23.7433 23.0675 23.7437C23.0271 23.7671 22.9856 23.7893 22.9429 23.81C22.6813 23.9372 22.4064 23.9997 22.135 23.9997C21.6986 23.9997 21.2716 23.8383 20.9245 23.5255C18.9697 21.7641 16.8572 21.0208 15.4292 20.7076C14.1735 20.432 13.2621 19.2958 13.2621 18.0059V13.6338C13.4437 13.9289 13.6869 14.3468 14.024 14.9332Z" fill="#EF3A47"/>
  </g>
  <defs>
    <clipPath id="clip0_130_1562">
      <rect width="24" height="24" fill="white"/>
    </clipPath>
  </defs>
</svg>