<svg xmlns="http://www.w3.org/2000/svg" width="16" height="24" viewBox="0 0 16 24" fill="none">
  <path d="M11.8904 7.70341C10.6179 5.64229 9.30683 3.49381 8.85203 1.27309C8.81264 1.07826 8.70539 0.903734 8.54937 0.780585C8.39334 0.657435 8.19867 0.593659 8.00003 0.600612C7.80325 0.596649 7.61131 0.66175 7.45754 0.784603C7.30378 0.907456 7.19792 1.0803 7.15835 1.27309C6.69371 3.51325 5.38259 5.64229 4.11011 7.70341C2.61011 10.1517 1.04747 12.6966 0.810105 15.5221C0.452265 26.0142 15.5257 26.0317 15.1899 15.5416C14.9528 12.6966 13.4048 10.1517 11.8904 7.70341ZM13.4967 16.6931C13.5241 17.0694 13.4322 17.446 13.3275 17.806C13.3179 17.8883 13.2935 17.9704 13.2596 18.0479C13.1305 18.5147 12.8641 18.9671 12.5967 19.3737C12.2161 19.9737 11.7071 20.5153 11.0919 20.8881C10.5591 21.2961 9.78635 21.6066 9.38891 20.859C9.33248 20.7641 9.29534 20.6589 9.27964 20.5496C9.26394 20.4403 9.26997 20.3289 9.2974 20.222C9.32483 20.115 9.3731 20.0145 9.43946 19.9262C9.50582 19.8379 9.58896 19.7636 9.6841 19.7075C9.70331 19.6979 9.72299 19.6835 9.74219 19.6737L9.73259 19.6641C10.3532 19.3453 10.8749 18.8632 11.2416 18.2696C11.6082 17.6761 11.8059 16.9937 11.8131 16.2961C11.8323 15.1897 13.4775 15.1897 13.4967 16.2961V16.6931Z" fill="url(#paint0_linear_127_1106)"/>
  <defs>
    <linearGradient id="paint0_linear_127_1106" x1="-4.79365" y1="-0.451068" x2="17.2904" y2="23.7505" gradientUnits="userSpaceOnUse">
      <stop stop-color="#97E0FF"/>
      <stop offset="1" stop-color="#1075FF"/>
    </linearGradient>
  </defs>
</svg>